<svg width="25" height="24" viewBox="0 0 25 24" fill="black" xmlns="http://www.w3.org/2000/svg">
<path d="M12.5 24C5.8724 24 0.5 18.6276 0.5 12C0.5 5.3724 5.8724 0 12.5 0C19.1276 0 24.5 5.3724 24.5 12C24.5 18.6276 19.1276 24 12.5 24ZM12.5 21.6C15.0461 21.6 17.4879 20.5886 19.2882 18.7882C21.0886 16.9879 22.1 14.5461 22.1 12C22.1 9.45392 21.0886 7.01212 19.2882 5.21178C17.4879 3.41143 15.0461 2.4 12.5 2.4C9.95392 2.4 7.51212 3.41143 5.71178 5.21178C3.91143 7.01212 2.9 9.45392 2.9 12C2.9 14.5461 3.91143 16.9879 5.71178 18.7882C7.51212 20.5886 9.95392 21.6 12.5 21.6ZM11.3 15.6H13.7V18H11.3V15.6ZM13.7 13.626V14.4H11.3V12.6C11.3 12.2817 11.4264 11.9765 11.6515 11.7515C11.8765 11.5264 12.1817 11.4 12.5 11.4C12.8409 11.4 13.1748 11.3032 13.4628 11.1208C13.7508 10.9384 13.9811 10.678 14.1269 10.3699C14.2727 10.0618 14.328 9.71855 14.2864 9.38021C14.2448 9.04187 14.1079 8.7223 13.8918 8.45869C13.6757 8.19509 13.3891 7.99828 13.0655 7.89116C12.7418 7.78405 12.3944 7.77104 12.0637 7.85365C11.733 7.93625 11.4325 8.11108 11.1972 8.35778C10.962 8.60448 10.8016 8.91292 10.7348 9.2472L8.3804 8.7756C8.52636 8.0461 8.86341 7.36844 9.35711 6.8119C9.8508 6.25536 10.4834 5.8399 11.1903 5.60798C11.8972 5.37607 12.653 5.33602 13.3804 5.49194C14.1079 5.64785 14.7808 5.99414 15.3306 6.49539C15.8803 6.99664 16.2871 7.63489 16.5093 8.34488C16.7316 9.05487 16.7613 9.81113 16.5954 10.5364C16.4296 11.2616 16.0741 11.9298 15.5654 12.4726C15.0567 13.0155 14.413 13.4135 13.7 13.626Z" fill="black"/>
</svg>
