<svg width="25" height="24" viewBox="0 0 25 24" fill="none" xmlns="http://www.w3.org/2000/svg">
<path d="M12.5 0C14.4096 0 16.2409 0.798494 17.5912 2.21982C18.9414 3.64115 19.7 5.56889 19.7 7.57895V8.8421H24.5V11.3684H23.0996L22.1912 22.8417C22.1662 23.1573 22.0295 23.4516 21.8081 23.6661C21.5868 23.8807 21.2969 23.9998 20.996 24H4.004C3.7031 23.9998 3.41324 23.8807 3.19187 23.6661C2.9705 23.4516 2.83378 23.1573 2.8088 22.8417L1.8992 11.3684H0.5V8.8421H5.3V7.57895C5.3 5.56889 6.05857 3.64115 7.40883 2.21982C8.75909 0.798494 10.5904 0 12.5 0ZM20.6912 11.3684H4.3076L5.108 21.4737H19.8908L20.6912 11.3684ZM13.7 13.8947V18.9474H11.3V13.8947H13.7ZM8.9 13.8947V18.9474H6.5V13.8947H8.9ZM18.5 13.8947V18.9474H16.1V13.8947H18.5ZM12.5 2.52632C11.2685 2.52631 10.0841 3.02455 9.19183 3.91797C8.29953 4.81138 7.76757 6.03163 7.706 7.32632L7.7 7.57895V8.8421H17.3V7.57895C17.3 6.28264 16.8267 5.03592 15.9779 4.09666C15.1292 3.1574 13.97 2.59745 12.74 2.53263L12.5 2.52632Z" fill="black"/>
</svg>
