<svg width="18" height="24" viewBox="0 0 18 24" fill="none" xmlns="http://www.w3.org/2000/svg">
<path d="M0 24C0 21.5752 0.948212 19.2496 2.63604 17.535C4.32387 15.8204 6.61305 14.8571 9 14.8571C11.3869 14.8571 13.6761 15.8204 15.364 17.535C17.0518 19.2496 18 21.5752 18 24H15.75C15.75 22.1814 15.0388 20.4372 13.773 19.1513C12.5071 17.8653 10.7902 17.1429 9 17.1429C7.20979 17.1429 5.4929 17.8653 4.22703 19.1513C2.96116 20.4372 2.25 22.1814 2.25 24H0ZM9 13.7143C5.27062 13.7143 2.25 10.6457 2.25 6.85714C2.25 3.06857 5.27062 0 9 0C12.7294 0 15.75 3.06857 15.75 6.85714C15.75 10.6457 12.7294 13.7143 9 13.7143ZM9 11.4286C11.4862 11.4286 13.5 9.38286 13.5 6.85714C13.5 4.33143 11.4862 2.28571 9 2.28571C6.51375 2.28571 4.5 4.33143 4.5 6.85714C4.5 9.38286 6.51375 11.4286 9 11.4286Z" fill="black"/>
</svg>
